:FULLY-SPECIFIED
:FORCE-ALL-JOINTS-BE-3DOF
:DEGREES
340
root 8.22718 16.039 -20.5453 11.1671 24.8872 4.73208
lfemur -10.8846 19.2912 -10.947
ltibia 41.8491 -0 0
lfoot 3.23925 25.6318 -0.549211
ltoes -33.8412 0 0
rfemur -46.5914 -12.4781 5.81609
rtibia 55.1955 -0 0
rfoot 3.30864 -20.6657 -0.395063
rtoes 10.8809 -0 0
lowerback -0.63487 -1.8859 -1.86694
upperback 1.79451 -2.4734 -0.0156995
thorax 2.26998 -1.27606 0.956456
lowerneck -5.25652 -8.92736 -0.55327
upperneck -2.58245 -11.8576 6.42402
head 0.521698 -5.88758 1.82415
lclavicle -2.93727e-14 1.27564e-14 -3.5669e-32
lhumerus -47.9815 -35.5875 110.075
lradius 58.0472 -0 0
lwrist 19.0966 0 0
lhand 6.32962 12.6563 0.0362563
lfingers 7.12502 -0 0
lthumb 31.6347 39.9084 0.0258351
rclavicle -2.93727e-14 1.27564e-14 -3.5669e-32
rhumerus -20.6794 19.4831 -70.8447
rradius 85.1615 -0 0
rwrist 3.87895 0 0
rhand 18.1808 -7.76515 1.45629
rfingers 7.12502 -0 0
rthumb 42.7625 -30.8326 1.67043
341
root 8.16522 16.0624 -20.3925 10.9028 23.4255 4.2405
lfemur -10.9127 19.1106 -10.3512
ltibia 43.2731 -0 0
lfoot 3.61411 24.5279 -0.657974
ltoes -32.6287 0 0
rfemur -45.9218 -12.5343 6.65098
rtibia 54.7414 -0 0
rfoot 2.43229 -19.9915 -0.548143
rtoes 11.0604 -0 0
lowerback -0.640906 -1.79957 -1.72837
upperback 1.7653 -2.36229 0.120487
thorax 2.23771 -1.2216 1.01931
lowerneck -5.36965 -8.70592 -0.558348
upperneck -2.36656 -11.5739 6.27614
head 0.590899 -5.74062 1.78159
lclavicle -2.80481e-14 1.29659e-14 -4.84613e-32
lhumerus -47.8046 -34.8271 109.816
lradius 58.0192 -0 0
lwrist 18.9434 0 0
lhand 5.7743 12.535 0.0429675
lfingers 7.12502 -0 0
lthumb 31.105 39.8846 0.0295761
rclavicle -2.80481e-14 1.29659e-14 -4.84613e-32
rhumerus -21.8897 18.8503 -72.1203
rradius 84.9979 -0 0
rwrist 4.04852 0 0
rhand 15.8559 -9.08731 2.06909
rfingers 7.12502 -0 0
rthumb 40.5517 -32.3975 2.38308
342
root 8.09917 16.0867 -20.2362 10.6212 21.9083 3.73604
lfemur -10.9557 18.9187 -9.71224
ltibia 44.8766 -0 0
lfoot 3.93551 23.1312 -0.729788
ltoes -30.9178 0 0
rfemur -45.241 -12.6587 7.66173
rtibia 54.2655 -0 0
rfoot 1.4734 -19.1195 -0.698876
rtoes 11.1461 -0 0
lowerback -0.605372 -1.70525 -1.59422
upperback 1.74518 -2.24098 0.254604
thorax 2.19112 -1.16159 1.08377
lowerneck -5.49284 -8.47102 -0.560237
upperneck -2.14171 -11.2725 6.1306
head 0.664176 -5.58467 1.7395
lclavicle -2.65824e-14 1.31417e-14 -5.96234e-32
lhumerus -47.6215 -34.0505 109.526
lradius 57.9929 -0 0
lwrist 18.7712 0 0
lhand 5.20163 12.3921 0.047203
lfingers 7.12502 -0 0
lthumb 30.5586 39.8413 0.0312167
rclavicle -2.65824e-14 1.31417e-14 -5.96234e-32
rhumerus -23.1504 18.1527 -73.4518
rradius 84.7671 -0 0
rwrist 4.13813 0 0
rhand 13.1746 -10.6239 2.68319
rfingers 7.12502 -0 0
rthumb 37.995 -34.2294 3.10122
343
root 8.02955 16.1117 -20.0771 10.3284 20.3438 3.22402
lfemur -11.018 18.7185 -9.03967
ltibia 46.6303 -0 0
lfoot 4.20521 21.4815 -0.766765
ltoes -28.7696 0 0
rfemur -44.5526 -12.8439 8.82457
rtibia 53.7708 -0 0
rfoot 0.442579 -18.074 -0.839544
rtoes 11.1495 -0 0
lowerback -0.532381 -1.60385 -1.46384
upperback 1.73338 -2.1105 0.386155
thorax 2.13182 -1.09652 1.1488
lowerneck -5.62447 -8.22442 -0.558721
upperneck -1.91013 -10.9555 5.9876
head 0.74068 -5.42091 1.69783
lclavicle -2.49954e-14 1.32838e-14 -6.85166e-32
lhumerus -47.4339 -33.2621 109.209
lradius 57.9676 -0 0
lwrist 18.5831 0 0
lhand 4.61261 12.2294 0.0491149
lfingers 7.12502 -0 0
lthumb 29.9964 39.7796 0.0309679
rclavicle -2.49954e-14 1.32838e-14 -6.85166e-32
rhumerus -24.4446 17.3955 -74.8224
rradius 84.4739 -0 0
rwrist 4.15749 0 0
rhand 10.185 -12.3509 3.26125
rfingers 7.12502 -0 0
rthumb 35.1362 -36.2987 3.78105
344
root 7.95689 16.1371 -19.9156 10.0301 18.7402 2.7092
lfemur -11.1038 18.5135 -8.34297
ltibia 48.5047 -0 0
lfoot 4.42464 19.6179 -0.772017
ltoes -26.2451 0 0
rfemur -43.8606 -13.0821 10.1159
rtibia 53.2602 -0 0
rfoot -0.649258 -16.8798 -0.963002
rtoes 11.0823 -0 0
lowerback -0.426055 -1.49627 -1.33653
upperback 1.72915 -1.97185 0.514644
thorax 2.0614 -1.02689 1.21333
lowerneck -5.76296 -7.96787 -0.553568
upperneck -1.67396 -10.6253 5.84727
head 0.819564 -5.25053 1.65652
lclavicle -2.33066e-14 1.33922e-14 -7.48291e-32
lhumerus -47.2434 -32.4669 108.869
lradius 57.9428 -0 0
lwrist 18.3821 0 0
lhand 4.00825 12.0486 0.0488782
lfingers 7.12502 -0 0
lthumb 29.4195 39.7009 0.0290511
rclavicle -2.33066e-14 1.33922e-14 -7.48291e-32
rhumerus -25.7562 16.5851 -76.2161
rradius 84.1231 -0 0
rwrist 4.11638 0 0
rhand 6.93738 -14.2403 3.76857
rfingers 7.12502 -0 0
rthumb 32.0221 -38.5718 4.38155
345
root 7.8817 16.1628 -19.7522 9.73118 17.1058 2.19577
lfemur -11.2171 18.3069 -7.63155
ltibia 50.4704 -0 0
lfoot 4.59504 17.5798 -0.74945
ltoes -23.4052 0 0
rfemur -43.1683 -13.365 11.5124
rtibia 52.7367 -0 0
rfoot -1.7908 -15.5621 -1.06299
rtoes 10.9558 -0 0
lowerback -0.290513 -1.38335 -1.21164
upperback 1.7317 -1.82604 0.639576
thorax 1.98147 -0.953203 1.27631
lowerneck -5.9067 -7.7031 -0.544528
upperneck -1.43539 -10.284 5.70971
head 0.899986 -5.07474 1.61551
lclavicle -2.15358e-14 1.34668e-14 -7.85186e-32
lhumerus -47.0512 -31.6694 108.509
lradius 57.9179 -0 0
lwrist 18.1712 0 0
lhand 3.38955 11.8513 0.0466944
lfingers 7.12502 -0 0
lthumb 28.8286 39.6065 0.0257028
rclavicle -2.15358e-14 1.34668e-14 -7.85186e-32
rhumerus -27.0703 15.7291 -77.618
rradius 83.7194 -0 0
rwrist 4.02455 0 0
rhand 3.48491 -16.2599 4.1749
rfingers 7.12502 -0 0
rthumb 28.7037 -41.01 4.86664
346
root 7.80452 16.1887 -19.5875 9.43624 15.449 1.68739
lfemur -11.3621 18.1023 -6.91475
ltibia 52.498 -0 0
lfoot 4.71772 15.4063 -0.703561
ltoes -20.3112 0 0
rfemur -42.479 -13.6833 12.9909
rtibia 52.2034 -0 0
rfoot -2.97035 -14.146 -1.13441
rtoes 10.7815 -0 0
lowerback -0.129881 -1.26596 -1.08851
upperback 1.74026 -1.67406 0.760457
thorax 1.89361 -0.875987 1.33671
lowerneck -6.05408 -7.43186 -0.531329
upperneck -1.19653 -9.93391 5.57499
head 0.981102 -4.89471 1.57472
lclavicle -1.97028e-14 1.35075e-14 -7.97548e-32
lhumerus -46.8586 -30.8744 108.132
lradius 57.8925 -0 0
lwrist 17.9534 0 0
lhand 2.75752 11.6393 0.0427959
lfingers 7.12502 -0 0
lthumb 28.2248 39.4976 0.0211764
rclavicle -1.97028e-14 1.35075e-14 -7.97548e-32
rhumerus -28.3731 14.8365 -79.0144
rradius 83.2677 -0 0
rwrist 3.89176 0 0
rhand -0.116719 -18.3734 4.45608
rfingers 7.12502 -0 0
rthumb 25.2354 -43.5698 5.20717
347
root 7.72588 16.2145 -19.4219 9.14926 13.7784 1.18728
lfemur -11.5424 17.9033 -6.20183
ltibia 54.5582 -0 0
lfoot 4.7941 13.1367 -0.639248
ltoes -17.0239 0 0
rfemur -41.7953 -14.0273 14.5283
rtibia 51.6632 -0 0
rfoot -4.17591 -12.6571 -1.17352
rtoes 10.5712 -0 0
lowerback 0.0517199 -1.14491 -0.966501
upperback 1.75402 -1.51693 0.876787
thorax 1.79943 -0.79576 1.39349
lowerneck -6.20351 -7.15588 -0.513679
upperneck -0.959495 -9.57735 5.4431
head 1.06207 -4.71164 1.53408
lclavicle -1.78272e-14 1.35143e-14 -7.88615e-32
lhumerus -46.6664 -30.0868 107.74
lradius 57.8659 -0 0
lwrist 17.7317 0 0
lhand 2.11315 11.4142 0.0374485
lfingers 7.12502 -0 0
lthumb 27.609 39.3754 0.0157449
rclavicle -1.78272e-14 1.35143e-14 -7.88615e-32
rhumerus -29.652 13.9171 -80.3925
rradius 82.7727 -0 0
rwrist 3.72777 0 0
rhand -3.80955 -20.5411 4.59544
rfingers 7.12502 -0 0
rthumb 21.6751 -46.2039 5.38264
348
root 7.64628 16.2402 -19.2561 8.87383 12.1027 0.69821
lfemur -11.7617 17.7133 -5.50204
ltibia 56.6215 -0 0
lfoot 4.82596 10.8098 -0.561616
ltoes -13.6044 0 0
rfemur -41.1191 -14.3866 16.1016
rtibia 51.1192 -0 0
rfoot -5.39522 -11.1211 -1.17814
rtoes 10.3361 -0 0
lowerback 0.250163 -1.02102 -0.844986
upperback 1.7722 -1.35562 0.988066
thorax 1.7005 -0.713055 1.4456
lowerneck -6.35338 -6.8769 -0.491259
upperneck -0.726389 -9.21657 5.31401
head 1.14206 -4.52673 1.49348
lclavicle -1.59288e-14 1.34871e-14 -7.62585e-32
lhumerus -46.4754 -29.3113 107.336
lradius 57.8376 -0 0
lwrist 17.5092 0 0
lhand 1.45746 11.1778 0.0309548
lfingers 7.12502 -0 0
lthumb 26.9821 39.2413 0.00970316
rclavicle -1.59288e-14 1.34871e-14 -7.62585e-32
rhumerus -30.8954 12.9822 -81.741
rradius 82.2392 -0 0
rwrist 3.54233 0 0
rhand -7.53417 -22.7213 4.58478
rfingers 7.12502 -0 0
rthumb 18.0826 -48.862 5.38247
349
root 7.56628 16.2655 -19.0905 8.61315 10.4305 0.222621
lfemur -12.0235 17.5361 -4.82458
ltibia 58.6585 -0 0
lfoot 4.81542 8.46477 -0.475794
ltoes -10.1138 0 0
rfemur -40.4515 -14.7501 17.6882
rtibia 50.5744 -0 0
rfoot -6.61593 -9.56349 -1.14774
rtoes 10.0879 -0 0
lowerback 0.461324 -0.895092 -0.723365
upperback 1.79399 -1.19113 1.09379
thorax 1.5984 -0.628409 1.49202
lowerneck -6.50208 -6.59667 -0.463729
upperneck -0.499282 -8.85387 5.18763
head 1.22023 -4.34117 1.45284
lclavicle -1.40272e-14 1.34258e-14 -7.24035e-32
lhumerus -46.286 -28.5527 106.924
lradius 57.807 -0 0
lwrist 17.2889 0 0
lhand 0.791424 10.9317 0.0236564
lfingers 7.12502 -0 0
lthumb 26.3451 39.0965 0.0033705
rclavicle -1.40272e-14 1.34258e-14 -7.24035e-32
rhumerus -32.093 12.0438 -83.0493
rradius 81.6721 -0 0
rwrist 3.3452 0 0
rhand -11.2307 -24.8714 4.42491
rfingers 7.12502 -0 0
rthumb 14.5188 -51.4931 5.20666
